<svg xmlns="http://www.w3.org/2000/svg" xmlns:xlink="http://www.w3.org/1999/xlink" contentStyleType="text/css" height="368px" preserveAspectRatio="none" style="width:594px;height:368px;background:#FFFFFF;" version="1.1" viewBox="0 0 594 368" width="594px" zoomAndPan="magnify"><defs/><g><line style="stroke:#181818;stroke-width:0.5;stroke-dasharray:5.0,5.0;" x1="39" x2="39" y1="39.0679" y2="330.4221"/><line style="stroke:#181818;stroke-width:0.5;stroke-dasharray:5.0,5.0;" x1="201.0882" x2="201.0882" y1="39.0679" y2="330.4221"/><line style="stroke:#181818;stroke-width:0.5;stroke-dasharray:5.0,5.0;" x1="454.5924" x2="454.5924" y1="39.0679" y2="330.4221"/><line style="stroke:#181818;stroke-width:0.5;stroke-dasharray:5.0,5.0;" x1="552.2601" x2="552.2601" y1="39.0679" y2="330.4221"/><rect fill="#E2E2F0" height="33.0679" rx="2.5" ry="2.5" style="stroke:#181818;stroke-width:0.5;" width="68.7398" x="5" y="5"/><text fill="#000000" font-family="sans-serif" font-size="14" lengthAdjust="spacing" textLength="54.7398" x="12" y="26.9659">Browser</text><rect fill="#E2E2F0" height="33.0679" rx="2.5" ry="2.5" style="stroke:#181818;stroke-width:0.5;" width="68.7398" x="5" y="329.4221"/><text fill="#000000" font-family="sans-serif" font-size="14" lengthAdjust="spacing" textLength="54.7398" x="12" y="351.388">Browser</text><rect fill="#E2E2F0" height="33.0679" rx="2.5" ry="2.5" style="stroke:#181818;stroke-width:0.5;" width="99.7497" x="152.0882" y="5"/><text fill="#000000" font-family="sans-serif" font-size="14" lengthAdjust="spacing" textLength="85.7497" x="159.0882" y="26.9659">Posts Service</text><rect fill="#E2E2F0" height="33.0679" rx="2.5" ry="2.5" style="stroke:#181818;stroke-width:0.5;" width="99.7497" x="152.0882" y="329.4221"/><text fill="#000000" font-family="sans-serif" font-size="14" lengthAdjust="spacing" textLength="85.7497" x="159.0882" y="351.388">Posts Service</text><rect fill="#E2E2F0" height="33.0679" rx="2.5" ry="2.5" style="stroke:#181818;stroke-width:0.5;" width="101.6677" x="404.5924" y="5"/><text fill="#000000" font-family="sans-serif" font-size="14" lengthAdjust="spacing" textLength="87.6677" x="411.5924" y="26.9659">Users Service</text><rect fill="#E2E2F0" height="33.0679" rx="2.5" ry="2.5" style="stroke:#181818;stroke-width:0.5;" width="101.6677" x="404.5924" y="329.4221"/><text fill="#000000" font-family="sans-serif" font-size="14" lengthAdjust="spacing" textLength="87.6677" x="411.5924" y="351.388">Users Service</text><rect fill="#E2E2F0" height="33.0679" rx="2.5" ry="2.5" style="stroke:#181818;stroke-width:0.5;" width="72.3658" x="516.2601" y="5"/><text fill="#000000" font-family="sans-serif" font-size="14" lengthAdjust="spacing" textLength="58.3658" x="523.2601" y="26.9659">Posts DB</text><rect fill="#E2E2F0" height="33.0679" rx="2.5" ry="2.5" style="stroke:#181818;stroke-width:0.5;" width="72.3658" x="516.2601" y="329.4221"/><text fill="#000000" font-family="sans-serif" font-size="14" lengthAdjust="spacing" textLength="58.3658" x="523.2601" y="351.388">Posts DB</text><polygon fill="#181818" points="189.963,68.7739,199.963,72.7739,189.963,76.7739,193.963,72.7739" style="stroke:#181818;stroke-width:1.0;"/><line style="stroke:#181818;stroke-width:1.0;" x1="39.3699" x2="195.963" y1="72.7739" y2="72.7739"/><text fill="#000000" font-family="sans-serif" font-size="13" lengthAdjust="spacing" textLength="138.5931" x="46.3699" y="66.9649">GET /feed [Bearer JWT]</text><polygon fill="#181818" points="443.4262,100.4799,453.4262,104.4799,443.4262,108.4799,447.4262,104.4799" style="stroke:#181818;stroke-width:1.0;"/><line style="stroke:#181818;stroke-width:1.0;" x1="201.963" x2="449.4262" y1="104.4799" y2="104.4799"/><text fill="#000000" font-family="sans-serif" font-size="13" lengthAdjust="spacing" textLength="186.9791" x="208.963" y="98.6709">GET /users/{user_id}/followees</text><polygon fill="#181818" points="212.963,132.186,202.963,136.186,212.963,140.186,208.963,136.186" style="stroke:#181818;stroke-width:1.0;"/><line style="stroke:#181818;stroke-width:1.0;stroke-dasharray:2.0,2.0;" x1="206.963" x2="454.4262" y1="136.186" y2="136.186"/><text fill="#000000" font-family="sans-serif" font-size="13" lengthAdjust="spacing" textLength="140.8421" x="218.963" y="130.377">200 OK {followee_ids[]}</text><polygon fill="#181818" points="540.443,181.598,550.443,185.598,540.443,189.598,544.443,185.598" style="stroke:#181818;stroke-width:1.0;"/><line style="stroke:#181818;stroke-width:1.0;" x1="201.963" x2="546.443" y1="185.598" y2="185.598"/><text fill="#000000" font-family="sans-serif" font-size="13" lengthAdjust="spacing" textLength="276.5363" x="208.963" y="162.083">SELECT posts WHERE author_id IN (followees)</text><text fill="#000000" font-family="sans-serif" font-size="13" lengthAdjust="spacing" textLength="221.3512" x="208.963" y="179.789">ORDER BY created_at DESC LIMIT 20</text><polygon fill="#181818" points="212.963,213.304,202.963,217.304,212.963,221.304,208.963,217.304" style="stroke:#181818;stroke-width:1.0;"/><line style="stroke:#181818;stroke-width:1.0;stroke-dasharray:2.0,2.0;" x1="206.963" x2="551.443" y1="217.304" y2="217.304"/><text fill="#000000" font-family="sans-serif" font-size="13" lengthAdjust="spacing" textLength="41.5611" x="218.963" y="211.495">posts[]</text><polygon fill="#181818" points="443.4262,245.01,453.4262,249.01,443.4262,253.01,447.4262,249.01" style="stroke:#181818;stroke-width:1.0;"/><line style="stroke:#181818;stroke-width:1.0;" x1="201.963" x2="449.4262" y1="249.01" y2="249.01"/><text fill="#000000" font-family="sans-serif" font-size="13" lengthAdjust="spacing" textLength="229.4632" x="208.963" y="243.201">GET /users/{id} (batch enrich authors)</text><polygon fill="#181818" points="212.963,276.716,202.963,280.716,212.963,284.716,208.963,280.716" style="stroke:#181818;stroke-width:1.0;"/><line style="stroke:#181818;stroke-width:1.0;stroke-dasharray:2.0,2.0;" x1="206.963" x2="454.4262" y1="280.716" y2="280.716"/><text fill="#000000" font-family="sans-serif" font-size="13" lengthAdjust="spacing" textLength="111.6701" x="218.963" y="274.907">200 OK {profiles[]}</text><polygon fill="#181818" points="50.3699,308.4221,40.3699,312.4221,50.3699,316.4221,46.3699,312.4221" style="stroke:#181818;stroke-width:1.0;"/><line style="stroke:#181818;stroke-width:1.0;stroke-dasharray:2.0,2.0;" x1="44.3699" x2="200.963" y1="312.4221" y2="312.4221"/><text fill="#000000" font-family="sans-serif" font-size="13" lengthAdjust="spacing" textLength="98.7091" x="56.3699" y="306.6131">200 OK {posts[]}</text><!--SRC=[TP11Qy8m68Rl-HKVdlGmAZjws24cRDtSB4sBZ2gIjLynK9gIn7cG_lUbjHO5TmhaVVAyBscaSIfNZQmTKADF5WrfRkucaRREWa3pgtASWBGGYNiYzM_kYLGySZ3QXumICZJ1quktBU2L9n2KY0La5ANnmVicsP58T41w1OvTJt3kZhqgsg3KLQLFY9Qa7XnKp_Cvh3_WV0qzQRDTExWONO3WAxvCeEatRTvup44UtK5tKWY_O3fwPzjw7JCU0_s6tA1qMEob0yR54bRXPvZuDiBesDqhi_zs-yam_P4kFm3MHldZKcjdZ_OtHfUgmd6xZuTFks4kVUqV]--></g></svg>