<svg xmlns="http://www.w3.org/2000/svg" xmlns:xlink="http://www.w3.org/1999/xlink" contentStyleType="text/css" height="255px" preserveAspectRatio="none" style="width:578px;height:255px;background:#FFFFFF;" version="1.1" viewBox="0 0 578 255" width="578px" zoomAndPan="magnify"><defs/><g><line style="stroke:#181818;stroke-width:0.5;stroke-dasharray:5.0,5.0;" x1="39" x2="39" y1="39.0679" y2="217.598"/><line style="stroke:#181818;stroke-width:0.5;stroke-dasharray:5.0,5.0;" x1="275.5783" x2="275.5783" y1="39.0679" y2="217.598"/><line style="stroke:#181818;stroke-width:0.5;stroke-dasharray:5.0,5.0;" x1="438.0694" x2="438.0694" y1="39.0679" y2="217.598"/><line style="stroke:#181818;stroke-width:0.5;stroke-dasharray:5.0,5.0;" x1="535.7371" x2="535.7371" y1="39.0679" y2="217.598"/><rect fill="#E2E2F0" height="33.0679" rx="2.5" ry="2.5" style="stroke:#181818;stroke-width:0.5;" width="68.7398" x="5" y="5"/><text fill="#000000" font-family="sans-serif" font-size="14" lengthAdjust="spacing" textLength="54.7398" x="12" y="26.9659">Browser</text><rect fill="#E2E2F0" height="33.0679" rx="2.5" ry="2.5" style="stroke:#181818;stroke-width:0.5;" width="68.7398" x="5" y="216.598"/><text fill="#000000" font-family="sans-serif" font-size="14" lengthAdjust="spacing" textLength="54.7398" x="12" y="238.5639">Browser</text><rect fill="#E2E2F0" height="33.0679" rx="2.5" ry="2.5" style="stroke:#181818;stroke-width:0.5;" width="99.7497" x="226.5783" y="5"/><text fill="#000000" font-family="sans-serif" font-size="14" lengthAdjust="spacing" textLength="85.7497" x="233.5783" y="26.9659">Posts Service</text><rect fill="#E2E2F0" height="33.0679" rx="2.5" ry="2.5" style="stroke:#181818;stroke-width:0.5;" width="99.7497" x="226.5783" y="216.598"/><text fill="#000000" font-family="sans-serif" font-size="14" lengthAdjust="spacing" textLength="85.7497" x="233.5783" y="238.5639">Posts Service</text><rect fill="#E2E2F0" height="33.0679" rx="2.5" ry="2.5" style="stroke:#181818;stroke-width:0.5;" width="101.6677" x="388.0694" y="5"/><text fill="#000000" font-family="sans-serif" font-size="14" lengthAdjust="spacing" textLength="87.6677" x="395.0694" y="26.9659">Users Service</text><rect fill="#E2E2F0" height="33.0679" rx="2.5" ry="2.5" style="stroke:#181818;stroke-width:0.5;" width="101.6677" x="388.0694" y="216.598"/><text fill="#000000" font-family="sans-serif" font-size="14" lengthAdjust="spacing" textLength="87.6677" x="395.0694" y="238.5639">Users Service</text><rect fill="#E2E2F0" height="33.0679" rx="2.5" ry="2.5" style="stroke:#181818;stroke-width:0.5;" width="72.3658" x="499.7371" y="5"/><text fill="#000000" font-family="sans-serif" font-size="14" lengthAdjust="spacing" textLength="58.3658" x="506.7371" y="26.9659">Posts DB</text><rect fill="#E2E2F0" height="33.0679" rx="2.5" ry="2.5" style="stroke:#181818;stroke-width:0.5;" width="72.3658" x="499.7371" y="216.598"/><text fill="#000000" font-family="sans-serif" font-size="14" lengthAdjust="spacing" textLength="58.3658" x="506.7371" y="238.5639">Posts DB</text><polygon fill="#181818" points="264.4531,68.7739,274.4531,72.7739,264.4531,76.7739,268.4531,72.7739" style="stroke:#181818;stroke-width:1.0;"/><line style="stroke:#181818;stroke-width:1.0;" x1="39.3699" x2="270.4531" y1="72.7739" y2="72.7739"/><text fill="#000000" font-family="sans-serif" font-size="13" lengthAdjust="spacing" textLength="213.0832" x="46.3699" y="66.9649">POST /posts {content} [Bearer JWT]</text><polygon fill="#181818" points="426.9032,100.4799,436.9032,104.4799,426.9032,108.4799,430.9032,104.4799" style="stroke:#181818;stroke-width:1.0;"/><line style="stroke:#181818;stroke-width:1.0;" x1="276.4531" x2="432.9032" y1="104.4799" y2="104.4799"/><text fill="#000000" font-family="sans-serif" font-size="13" lengthAdjust="spacing" textLength="138.4501" x="283.4531" y="98.6709">GET /users/{author_id}</text><polygon fill="#181818" points="287.4531,132.186,277.4531,136.186,287.4531,140.186,283.4531,136.186" style="stroke:#181818;stroke-width:1.0;"/><line style="stroke:#181818;stroke-width:1.0;stroke-dasharray:2.0,2.0;" x1="281.4531" x2="437.9032" y1="136.186" y2="136.186"/><text fill="#000000" font-family="sans-serif" font-size="13" lengthAdjust="spacing" textLength="96.8891" x="293.4531" y="130.377">200 OK {profile}</text><polygon fill="#181818" points="523.9199,163.892,533.9199,167.892,523.9199,171.892,527.9199,167.892" style="stroke:#181818;stroke-width:1.0;"/><line style="stroke:#181818;stroke-width:1.0;" x1="276.4531" x2="529.9199" y1="167.892" y2="167.892"/><text fill="#000000" font-family="sans-serif" font-size="13" lengthAdjust="spacing" textLength="74.1261" x="283.4531" y="162.083">INSERT post</text><polygon fill="#181818" points="50.3699,195.598,40.3699,199.598,50.3699,203.598,46.3699,199.598" style="stroke:#181818;stroke-width:1.0;"/><line style="stroke:#181818;stroke-width:1.0;stroke-dasharray:2.0,2.0;" x1="44.3699" x2="275.4531" y1="199.598" y2="199.598"/><text fill="#000000" font-family="sans-serif" font-size="13" lengthAdjust="spacing" textLength="113.9581" x="56.3699" y="193.789">201 Created {post}</text><!--SRC=[ROun2y8m48Nt_8gZkxGwTd28BQA2BQR5GKH2Us90cf2cEfJyTwybWuBhk-zxxuoqJZNAoCu1j_hTesNcAujAtRiU1DgNQZ02sKCfVecQd5-Y5lywCZuVCyvOM8B5cjfIA0jHGMncQcnqvx1p7YuSfILeVwwkh1GJN1EypOaTfirub8DxQ7jJhMSr0Q5kbIHG760qLj_L4tsGCvx2xYZoKmNJr9nI77wPj2LiB4g7BRb4-0y0]--></g></svg>